<svg width="111" height="24" viewBox="0 0 111 24" fill="none" xmlns="http://www.w3.org/2000/svg">
<g clip-path="url(#clip0_8234_55109)">
<path d="M13.0978 1.68433H4.26758C3.415 1.68433 2.72384 2.37548 2.72384 3.22807C2.72384 4.08065 3.415 4.7718 4.26758 4.7718H13.0978C13.9504 4.7718 14.6415 4.08065 14.6415 3.22807C14.6415 2.37548 13.9504 1.68433 13.0978 1.68433Z" fill="url(#paint0_linear_8234_55109)"/>
<path d="M13.0978 8.59692H4.26758C3.415 8.59692 2.72384 9.28808 2.72384 10.1407C2.72384 10.9932 3.415 11.6844 4.26758 11.6844H13.0978C13.9504 11.6844 14.6415 10.9932 14.6415 10.1407C14.6415 9.28808 13.9504 8.59692 13.0978 8.59692Z" fill="url(#paint1_linear_8234_55109)"/>
<path d="M13.0978 15.5127H4.26758C3.415 15.5127 2.72384 16.2039 2.72384 17.0564C2.72384 17.909 3.415 18.6002 4.26758 18.6002H13.0978C13.9504 18.6002 14.6415 17.909 14.6415 17.0564C14.6415 16.2039 13.9504 15.5127 13.0978 15.5127Z" fill="url(#paint2_linear_8234_55109)"/>
<path d="M1.87307 8.55913C2.90754 8.55913 3.74614 7.72053 3.74614 6.68606C3.74614 5.65159 2.90754 4.81299 1.87307 4.81299C0.838602 4.81299 0 5.65159 0 6.68606C0 7.72053 0.838602 8.55913 1.87307 8.55913Z" fill="#FF0900"/>
<path d="M1.87307 15.4717C2.90754 15.4717 3.74614 14.6331 3.74614 13.5987C3.74614 12.5642 2.90754 11.7256 1.87307 11.7256C0.838602 11.7256 0 12.5642 0 13.5987C0 14.6331 0.838602 15.4717 1.87307 15.4717Z" fill="#FFC500"/>
<path d="M24.5557 18.9296C24.1784 18.9296 23.7461 18.8953 23.259 18.8233C22.7719 18.7512 22.3019 18.59 21.8559 18.3396C21.4065 18.0891 21.036 17.7049 20.7479 17.1938C20.4563 16.6826 20.3122 15.9794 20.3122 15.084V5.34127C20.3122 4.5694 20.4288 3.92446 20.6655 3.40645C20.9022 2.88844 21.2144 2.48021 21.6089 2.17832C22.0034 1.87986 22.4357 1.66717 22.9057 1.54024C23.3756 1.41331 23.8422 1.35156 24.2985 1.35156C25.4786 1.35156 26.5214 1.36872 27.4237 1.39959C28.3293 1.43046 29.1424 1.4682 29.8662 1.50594C29.8731 1.50594 29.8799 1.50594 29.8868 1.50594C30.988 1.56769 31.8456 2.48021 31.8456 3.58484V4.58312H25.3345C24.8473 4.58312 24.47 4.69976 24.2024 4.93647C23.9348 5.17318 23.801 5.53338 23.801 6.02052V8.54539L30.7136 8.73407V11.4956L23.801 11.6843V14.0891C23.801 14.4974 23.8662 14.8164 24 15.0462C24.1338 15.2761 24.3156 15.4305 24.542 15.5197C24.7684 15.6054 25.0086 15.65 25.2624 15.65H31.8456V16.3464C31.8456 17.626 30.8473 18.6895 29.5712 18.7615C29.5643 18.7615 29.554 18.7615 29.5472 18.7615C28.7067 18.8095 27.8559 18.8473 26.9983 18.8782C26.1407 18.909 25.3276 18.9262 24.5557 18.9262V18.9296Z" fill="#FDFDFD"/>
<path d="M48.2127 17.9795L43.9657 5.31055H45.9142C46.8988 5.31055 47.7633 5.96235 48.0377 6.90574L50.3122 14.7479L52.6621 6.85429C52.9331 5.93833 53.7736 5.31398 54.7307 5.31398H56.6861L52.2504 17.9829H48.2161L48.2127 17.9795Z" fill="#FDFDFD"/>
<path d="M57.8902 17.9795V5.31055H59.163C60.3877 5.31055 61.3825 6.3054 61.3825 7.5301V17.9795H57.8902Z" fill="#FDFDFD"/>
<path d="M67.9348 18.1098C67.5403 18.1098 67.1184 18.0995 66.6621 18.0755C66.2058 18.0515 65.7496 18.0172 65.2933 17.9692C64.8371 17.9211 64.4117 17.8628 64.0206 17.7908C63.6261 17.7187 63.2967 17.6364 63.0292 17.5438V17.0669C63.0292 16.1956 63.7359 15.4923 64.6038 15.4923H68.6415C68.9708 15.4923 69.2419 15.4649 69.4546 15.41C69.6672 15.3551 69.825 15.2522 69.9245 15.1047C70.0274 14.9537 70.0789 14.7376 70.0789 14.4563V14.0549C70.0789 13.7393 69.976 13.4957 69.7736 13.3242C69.5678 13.1527 69.1904 13.0635 68.6415 13.0635H66.6587C65.9348 13.0635 65.283 12.9537 64.6998 12.7342C64.1166 12.5146 63.657 12.151 63.3208 11.6501C62.9811 11.1458 62.813 10.47 62.813 9.62268V8.89197C62.813 8.08923 62.9708 7.41341 63.2865 6.86453C63.6021 6.31564 64.1269 5.89712 64.8679 5.61582C65.6055 5.33108 66.6209 5.19043 67.9108 5.19043C68.4288 5.19043 68.9846 5.21787 69.5746 5.27276C70.1647 5.32765 70.7238 5.39969 71.2487 5.48546C71.2556 5.48546 71.259 5.48546 71.2659 5.48546C71.9863 5.60552 72.5112 6.23331 72.5112 6.96744V7.83194H67.2041C66.7479 7.83194 66.4014 7.90741 66.1647 8.05492C65.928 8.20587 65.8113 8.48374 65.8113 8.89197V9.26933C65.8113 9.55407 65.8662 9.7599 65.976 9.89369C66.0858 10.0275 66.2539 10.1235 66.4837 10.1784C66.7101 10.2333 66.9983 10.2608 67.3448 10.2608H69.3722C70.6621 10.2608 71.6021 10.5558 72.1921 11.1458C72.7822 11.7359 73.0772 12.5489 73.0772 13.5884V14.7204C73.0772 15.5712 72.8782 16.2436 72.4768 16.7376C72.0755 17.2316 71.4923 17.5884 70.7307 17.7976C69.9691 18.0069 69.036 18.1167 67.9348 18.1167V18.1098Z" fill="#FDFDFD"/>
<path d="M77.3448 18.1337C76.3842 18.1337 75.6055 17.849 75.0086 17.2829C74.4117 16.7169 74.1132 15.9313 74.1132 14.9227V13.7906C74.1132 12.8301 74.4494 12.0411 75.1286 11.4201C75.8045 10.7992 76.8576 10.487 78.2916 10.487H81.5232V9.61568C81.5232 9.22117 81.4511 8.89527 81.3105 8.63798C81.1698 8.37726 80.9057 8.18858 80.5214 8.07195C80.1372 7.95531 79.5506 7.89356 78.765 7.89356H76.8096C75.7907 7.89356 74.9674 7.0668 74.9674 6.05136V5.86611C75.5815 5.67743 76.2916 5.51277 77.1012 5.37212C77.9108 5.23146 78.8919 5.15942 80.0377 5.15942C81.0909 5.15942 81.9931 5.28635 82.7376 5.53678C83.4854 5.78721 84.0515 6.21946 84.4357 6.83352C84.8199 7.44759 85.012 8.29493 85.012 9.38241V17.993H82.2504L81.976 17.3447C81.8353 17.0119 81.4374 16.885 81.1252 17.0702C81.1252 17.0702 81.1184 17.0702 81.1184 17.0737C80.8508 17.2315 80.5249 17.3927 80.1406 17.5574C79.7564 17.722 79.3242 17.8593 78.8439 17.969C78.3636 18.0788 77.8662 18.1337 77.3448 18.1337ZM79.1149 15.7049C79.2727 15.7049 79.4477 15.6843 79.6467 15.6466C79.8422 15.6088 80.048 15.5608 80.2607 15.5059C80.4734 15.451 80.6689 15.3961 80.8508 15.3412C81.0326 15.2864 81.1801 15.2349 81.3002 15.1869C81.4202 15.1388 81.4923 15.108 81.5232 15.0908V12.1406L79.3997 12.2812C78.7856 12.3292 78.3328 12.487 78.0446 12.7546C77.753 13.0222 77.6089 13.3824 77.6089 13.8387V14.3567C77.6089 14.6723 77.6741 14.9296 77.8079 15.1354C77.9417 15.3412 78.1235 15.4853 78.3499 15.5711C78.5763 15.6568 78.8336 15.7014 79.1149 15.7014V15.7049Z" fill="#FDFDFD"/>
<path d="M90.3225 23.9999C89.5197 23.9999 88.8096 23.8833 88.1887 23.6466C87.5678 23.4099 87.0772 23.0703 86.7135 22.6209C86.3533 22.1715 86.1715 21.6191 86.1715 20.957V20.5797C86.1715 19.9039 86.3636 19.3241 86.7479 18.8473C87.1321 18.367 87.6329 18.0034 88.247 17.7495C88.8611 17.4991 89.5129 17.3721 90.2058 17.3721L91.2453 18.4562C90.8988 18.4562 90.5935 18.5111 90.3259 18.6209C90.0583 18.7306 89.8491 18.8919 89.7015 19.1046C89.5506 19.3173 89.4786 19.5814 89.4786 19.8936V20.1543C89.4786 20.6106 89.6364 20.957 89.952 21.1938C90.2676 21.4305 90.7135 21.5471 91.2967 21.5471H93.7015C94.2847 21.5471 94.7513 21.4339 95.1046 21.204C95.458 20.9742 95.6364 20.6346 95.6364 20.1783V19.801C95.6364 19.5162 95.5712 19.2795 95.4374 19.0805C95.3036 18.885 95.1081 18.7306 94.8473 18.6209C94.5866 18.5111 94.2367 18.4562 93.7976 18.4562H90.9914C89.5746 18.4562 88.5249 18.192 87.8422 17.6672C87.1595 17.1389 86.8165 16.4905 86.8165 15.7221C86.8165 15.0771 87.0017 14.5385 87.3722 14.1063C87.7427 13.674 88.2573 13.3859 88.9159 13.2452C88.4117 12.9776 88.0103 12.6517 87.7118 12.2675C87.4134 11.8833 87.2007 11.4648 87.0738 11.0188C86.9468 10.5694 86.8851 10.1028 86.8851 9.61571C86.8851 8.68947 87.0772 7.9176 87.4648 7.30353C87.8491 6.68947 88.4322 6.23321 89.211 5.93475C89.9897 5.63629 90.9674 5.48535 92.1475 5.48535H99.012C99.012 6.59341 98.2196 7.54024 97.1321 7.73921L97.0772 7.7495C97.2178 7.90731 97.3619 8.09256 97.5026 8.30525C97.6432 8.51794 97.7667 8.79238 97.8696 9.13201C97.9726 9.47163 98.024 9.89015 98.024 10.3944C98.024 11.1183 97.8696 11.7701 97.5643 12.3533C97.259 12.9365 96.7684 13.3996 96.1029 13.7461C95.434 14.0926 94.5489 14.2641 93.4477 14.2641H91.2075C90.7822 14.2641 90.4357 14.3258 90.1681 14.4528C89.9005 14.5797 89.7667 14.8061 89.7667 15.1354C89.7667 15.403 89.8799 15.5883 90.1098 15.6912C90.3362 15.7941 90.5935 15.8456 90.8748 15.8456H94.3671C95.3413 15.8456 96.1681 15.9725 96.8439 16.2229C97.5197 16.4733 98.0377 16.8781 98.4014 17.4373C98.7616 17.9965 98.9434 18.7306 98.9434 19.6432V19.9965C98.9434 21.2384 98.5489 22.2161 97.7633 22.933C96.9777 23.65 95.7667 24.0068 94.1304 24.0068H90.3328L90.3225 23.9999ZM91.6912 11.6363H93.036C93.5232 11.6363 93.8971 11.5608 94.1578 11.4133C94.4185 11.2624 94.5969 11.06 94.6998 10.7992C94.8027 10.5385 94.8542 10.2366 94.8542 9.89015C94.8542 9.45105 94.789 9.0977 94.6552 8.83012C94.5214 8.56254 94.3293 8.37386 94.0755 8.26408C93.825 8.15431 93.5094 8.09942 93.1321 8.09942H91.8113C91.2144 8.09942 90.765 8.22978 90.4665 8.48707C90.1681 8.74779 90.0171 9.19719 90.0171 9.84213C90.0171 10.4871 90.1578 10.909 90.4425 11.1972C90.7273 11.4888 91.1424 11.6329 91.6947 11.6329L91.6912 11.6363Z" fill="#FDFDFD"/>
<path d="M105.516 18.1337C104.117 18.1337 102.998 17.9485 102.165 17.578C101.331 17.2075 100.731 16.5522 100.36 15.6088C99.9897 14.6654 99.8045 13.3584 99.8045 11.6912C99.8045 10.0239 99.976 8.64829 100.322 7.70489C100.669 6.76149 101.249 6.0994 102.069 5.72204C102.885 5.34469 103.997 5.15601 105.396 5.15601C106.655 5.15601 107.66 5.28294 108.415 5.53336C109.17 5.78379 109.715 6.22633 110.055 6.85412C110.391 7.48191 110.563 8.37384 110.563 9.51964C110.563 10.3704 110.395 11.0428 110.055 11.5368C109.715 12.0308 109.242 12.3876 108.628 12.5968C108.014 12.8061 107.29 12.9159 106.456 12.9159H103.273C103.304 13.5608 103.403 14.0754 103.568 14.4596C103.732 14.8438 104.041 15.1217 104.487 15.2864C104.933 15.451 105.585 15.5334 106.432 15.5334H108.082C109.214 15.5334 110.134 16.4527 110.134 17.5848C109.52 17.7118 108.847 17.8318 108.117 17.9519C107.386 18.0685 106.515 18.1303 105.509 18.1303L105.516 18.1337ZM103.228 10.8438H106.106C106.58 10.8438 106.923 10.7512 107.146 10.5591C107.365 10.3704 107.475 10.0308 107.475 9.54366C107.475 9.08739 107.403 8.72376 107.262 8.44589C107.122 8.17144 106.902 7.97247 106.6 7.85583C106.302 7.7392 105.901 7.67745 105.396 7.67745C104.861 7.67745 104.436 7.76664 104.123 7.94846C103.808 8.13028 103.581 8.44932 103.441 8.90558C103.3 9.36184 103.228 10.0068 103.228 10.8404V10.8438Z" fill="#FDFDFD"/>
<path d="M40.2676 5.31055H36.6003C34.9331 5.31055 33.5506 6.53525 33.3036 8.1373C33.2796 8.30197 33.2659 8.4735 33.2659 8.64502V17.9795H34.0549C35.4614 17.9795 36.6003 16.8406 36.6003 15.434V8.64502H40.2676V17.9795H41.0566C42.4631 17.9795 43.6021 16.8406 43.6021 15.434V8.64502C43.6021 6.80283 42.1098 5.31055 40.2676 5.31055Z" fill="#FDFDFD"/>
<path d="M59.6364 3.74614C60.6708 3.74614 61.5094 2.90754 61.5094 1.87307C61.5094 0.838602 60.6708 0 59.6364 0C58.6019 0 57.7633 0.838602 57.7633 1.87307C57.7633 2.90754 58.6019 3.74614 59.6364 3.74614Z" fill="#00BFE7"/>
</g>
<defs>
<linearGradient id="paint0_linear_8234_55109" x1="2.72384" y1="3.22807" x2="14.6449" y2="3.22807" gradientUnits="userSpaceOnUse">
<stop stop-color="#0B4194"/>
<stop offset="1" stop-color="#03A7D2"/>
</linearGradient>
<linearGradient id="paint1_linear_8234_55109" x1="5.02886e-07" y1="10.1407" x2="0.343054" y2="10.1407" gradientUnits="userSpaceOnUse">
<stop stop-color="#0B4194"/>
<stop offset="1" stop-color="#03A7D2"/>
</linearGradient>
<linearGradient id="paint2_linear_8234_55109" x1="5.02886e-07" y1="17.0564" x2="0.343054" y2="17.0564" gradientUnits="userSpaceOnUse">
<stop stop-color="#0B4194"/>
<stop offset="1" stop-color="#03A7D2"/>
</linearGradient>
<clipPath id="clip0_8234_55109">
<rect width="110.563" height="24" fill="white"/>
</clipPath>
</defs>
</svg>
